<?xml version="1.0" encoding="UTF-8"?>
<svg id="Capa_1" data-name="Capa 1" xmlns="http://www.w3.org/2000/svg" viewBox="0 0 659 420">
  <defs>
    <style>
      .cls-1 {
        fill: #fff;
      }

      .cls-2 {
        fill: #0087c1;
      }

      .cls-3 {
        fill: #006f9d;
      }

      .cls-4 {
        fill: #005578;
      }
    </style>
  </defs>
  <path class="cls-1" d="m645.21,383.27c.12-1.37-.09-2.77-.64-4.08-1.35-3.17-3.72-5.7-6.85-7.32-1.21-.62-2.55-.95-3.91-.95h-17.49c-1.35,0-2.69.32-3.9.94-1.6.82-3,1.9-4.18,3.17-.13-.21-.21-.44-.35-.63-.1-.65-.28-1.3-.53-1.92l-1.42-3.46c-.23-.56-.51-1.09-.84-1.57-.1-.56-.26-1.11-.47-1.65l-1.56-3.91c-.22-.54-.48-1.05-.8-1.53-.1-.43-.23-.87-.4-1.29l-1.7-4.29c-.19-.49-.43-.96-.71-1.4-.1-.4-.22-.81-.39-1.2l-1.91-4.69c-.15-.36-.31-.7-.5-1.03-.09-.33-.2-.66-.32-.98l-2.05-5.13c-.14-.36-.31-.71-.5-1.04-.06-.19-.12-.38-.2-.56l-2.2-5.52c-.12-.32-.27-.63-.43-.93-.05-.14-.1-.28-.16-.42l-2.41-5.91c-.07-.17-.15-.35-.23-.52-.03-.09-.07-.18-.1-.27l-2.52-6.29c-.06-.17-.12-.34-.19-.5l-4.18-10.26c-1.31-3.22-4.43-5.32-7.9-5.32h-.98c-.48-2.57-1.14-5.01-1.77-7.24l-.23-.82c1.24-1.36,2.03-3.12,2.19-5.04.7-8.65-.2-16.62-1.99-23.89,1.32-1.52,2.1-3.49,2.1-5.6,0-1.42.04-2.8.08-4.14.09-3.15.19-6.42-.21-9.81-.45-3.72-1.12-7.38-2.03-11.01,1-1.24,1.64-2.75,1.82-4.39,1.42-12.71-.58-25.26-5.96-37.3-9.77-21.86-25.03-41.67-48.01-62.34-14.19-12.76-29.09-25.03-43.5-36.9-4.24-3.49-8.47-6.98-12.69-10.48-15.62-12.95-26.52-23.71-35.36-34.86-7.8-9.84-12.9-18.42-16.05-27.01-.22-.61-.44-1.22-.54-1.62l-.05-.51c-.6-7.33-4.65-9.92-7.94-10.81-3.01-.81-5.52-.22-7.54.81-2.7-1.57-6.12-1.6-8.88.16-24.17,15.43-62.67,43.59-73.93,72.35-.31-.43-.65-.84-1.05-1.22l-2.04-1.96c-.34-.3-.72-.67-1.15-1.09-1.15-1.11-2.58-2.47-4.36-3.94-.13-.1-.57-.44-.71-.54l-6.21-4.52c-.26-.19-.52-.36-.8-.51l-6.09-3.41c-1.03-.58-2.31-1.3-3.64-1.81l-1.15-.48c-2.01-.85-4.12-1.73-6.34-2.55-.18-.07-.36-.12-.54-.18l-2.53-.76c-1.85-.56-3.74-1.13-5.71-1.66-.21-.06-.42-.11-.63-.15l-2.2-.43c-2.29-.45-4.64-.91-7.25-1.27-7.61-.89-14.45-1.11-20.9-.69l-5.33.35c-1.24.12-2.47.29-3.7.46l-3.44.46c-1.34.17-2.68.35-3.97.61l-4.99,1.01c-1.96.36-3.9.81-5.74,1.31l-5.43,1.42c-3.49,1.04-6.97,2.12-10.59,3.34-8.37,3.02-14.62,5.58-20.13,8.21-6.97,3.17-13.37,6.64-18.78,9.67-5.91,3.39-11.49,6.84-16.57,10.23-4.54,3.01-9.19,6.32-14.16,10.08-4.41,3.27-8.28,6.46-11.56,9.21-3.38,2.83-6.23,5.41-8.5,7.51-1.9,1.72-3.41,3.22-4.57,4.38l-2.66,2.72c-3.01,3.11-3.21,7.98-.47,11.33,1.67,2.05,4.13,3.13,6.61,3.13,1.01,0,2-.25,2.97-.61-.62.54-1.18,1.05-1.7,1.51-1.98,1.74-3.55,3.25-4.74,4.4l-2.59,2.57c-3.04,3.07-3.32,7.93-.63,11.31,1.64,2.06,4.06,3.16,6.53,3.21-1.21,1.06-2.31,2.05-3.14,2.81l-.72.67c-1.36,1.26-2.05,1.97-2.05,1.97-3,3.06-3.28,7.88-.63,11.25,1.67,2.13,4.17,3.27,6.72,3.27.21,0,.42-.07.64-.09-1.54,1.28-2.87,2.45-3.87,3.34l-.72.64c-1.35,1.22-2.04,1.9-2.04,1.9-3.06,3-3.41,7.82-.83,11.23,1.67,2.2,4.22,3.39,6.81,3.39,1.24,0,2.49-.33,3.66-.89-.67.51-1.28,1-1.85,1.44-4.89,3.86-7.56,6.38-7.68,6.49-3.11,2.94-3.57,7.72-1.06,11.19,1.65,2.3,4.26,3.54,6.92,3.54.21,0,.41-.06.62-.08-4.51,3.43-7,5.66-7.11,5.76-3.18,2.87-3.74,7.64-1.32,11.17,1.64,2.39,4.3,3.7,7.04,3.7,1.31,0,2.63-.3,3.86-.92l4.07-1.98c-.74.49-1.53,1-2.2,1.44l-.78.52c-5.02,3.42-7.81,5.69-7.92,5.78-3.3,2.71-4.09,7.44-1.85,11.08,1.6,2.59,4.38,4.05,7.26,4.05,1.16,0,2.34-.24,3.46-.74l3.26-1.38c-1.58.97-3.04,1.9-4.29,2.71l-.59.38c-5.05,3.3-7.86,5.51-7.98,5.6-3.34,2.65-4.22,7.35-2.06,11.02,1.57,2.67,4.41,4.2,7.36,4.2,1.1,0,2.21-.21,3.28-.66l17.56-7.01c.07-.03.15-.06.22-.08-3.84,1.94-7.67,4-11.27,6.1-3.35,1.89-6.2,3.72-8.5,5.19l-.77.5c-5.05,3.3-7.86,5.52-7.98,5.61-3.34,2.65-4.22,7.35-2.06,11.02.97,1.64,2.43,2.79,4.08,3.48-2.06,1.51-3.28,3.8-3.46,6.24-3.08-6.9-10.63-14.94-29.12-15.06h-22.78c-18.94.12-26.41,8.5-29.34,15.5-.08.19-.15.39-.22.58-1.1,2.74-1.72,5.81-1.85,9.12-.01.3,0,.6,0,.9-.01.19-.02.37-.02.56v5.63c0,.22,0,.43.02.64-.02.21-.02.42-.02.64v5.52c0,.27.01.54.04.81-.02.27-.04.54-.04.81v5.13c0,.35.02.69.06,1.03-.04.34-.06.68-.06,1.03v4.69c0,.42.03.85.09,1.25-.06.41-.09.83-.09,1.26v4.29c0,.48.04.96.12,1.42-.07.46-.12.94-.12,1.42v3.91c0,.56.05,1.11.16,1.65-.1.53-.16,1.08-.16,1.65v3.46c0,.66.07,1.3.22,1.92-.14.62-.22,1.27-.22,1.93,0,1.34.07,2.6.18,3.79.11,1.08.41,2.1.88,3.02-.02,1,.12,2,.45,2.96.55,1.61,1.27,3.13,2.16,4.52.89,1.4,2.15,2.48,3.62,3.16.62,1.52,1.69,2.88,3.12,3.84,1.95,1.32,4.18,2.41,6.64,3.24.88.3,1.8.45,2.74.45h46.1c.95,0,1.9-.16,2.8-.47,2.22-.77,4.26-1.79,6.11-2.99,1.6,2.15,4.11,3.46,6.81,3.46h25.78c3.54,0,6.71-2.19,7.97-5.49l.85-2.23c.27-.72.45-1.47.52-2.22.53-.65.96-1.39,1.28-2.2l.54-1.37h19.59l.54,1.37c.32.81.75,1.55,1.28,2.2.08.82.28,1.65.6,2.43l.92,2.23c1.32,3.19,4.43,5.27,7.89,5.27h25.78c1.94,0,3.77-.7,5.26-1.87,1.47,1.15,3.27,1.87,5.22,1.87h26.2c3.45,0,6.56-2.08,7.89-5.27l.92-2.23c.32-.79.52-1.61.6-2.43.49-.6.9-1.28,1.21-2.02l1.13-2.68c.3-.71.5-1.45.6-2.19.45-.58.83-1.23,1.12-1.94l.14-.34,17.58-.65c-.13.58-.22,1.17-.22,1.79v2.68c0,.78.1,1.54.3,2.26-.2.72-.3,1.47-.3,2.26v2.23c0,4.71,3.82,8.53,8.53,8.53h66.43c.26,1.24.78,2.43,1.57,3.47,1.62,2.1,4.12,3.34,6.77,3.34h18.69c3.33,0,6.35-1.93,7.75-4.96l.85-1.84c.4-.87.64-1.78.74-2.7.65-.69,1.18-1.48,1.57-2.37l.99-2.23c.34-.75.56-1.55.66-2.35.56-.63,1.02-1.35,1.38-2.14l1.2-2.68c.31-.7.52-1.41.64-2.15.46-.55.85-1.17,1.16-1.85l.57-1.22c.55-1.2.81-2.5.77-3.79h6.75c1.08,0,2.11-.22,3.06-.59.94.35,1.94.57,2.97.57h12.62c.02.93.07,1.85.2,2.73.14.92.42,1.78.82,2.57-.03,1.01.12,2.02.46,3,.55,1.6,1.28,3.11,2.15,4.48.89,1.4,2.15,2.48,3.61,3.16.64,1.57,1.75,2.95,3.24,3.93,1.95,1.27,4.12,2.32,6.45,3.13.9.32,1.85.47,2.8.47h46.1c.95,0,1.9-.16,2.8-.47,2.38-.83,4.57-1.91,6.5-3.22.89-.6,1.58-1.38,2.17-2.23,1.14,1.85,2.59,3.45,4.48,4.63,1.35.85,2.92,1.29,4.51,1.29h18.84c1.27,0,2.49-.36,3.63-.9,1.15.56,2.42.9,3.74.9h25.77c3.54,0,6.71-2.19,7.97-5.49l.85-2.23c.27-.72.45-1.46.52-2.21.53-.66.97-1.4,1.29-2.22l.53-1.35h19.59l.54,1.37c.32.81.75,1.55,1.28,2.2.08.82.28,1.65.6,2.43l.92,2.23c1.32,3.19,4.43,5.27,7.89,5.27h25.78c1.43,0,2.81-.36,4.03-1.02,1.21.63,2.53,1.02,3.9,1.02h18.84c1.6,0,3.16-.45,4.51-1.29,2.22-1.38,3.95-3.27,5.14-5.59.74-1.45,1.04-3.05.9-4.62.57-1.14.88-2.42.88-3.78v-2.68c0-1.18-.24-2.3-.67-3.32Z"/>
  <g>
    <path class="cls-3" d="m104.51,132.09s.61-.63,1.74-1.8c1.16-1.14,2.84-2.86,5.1-4.91,2.24-2.07,4.98-4.56,8.24-7.28,3.26-2.72,6.96-5.78,11.17-8.9,4.17-3.16,8.77-6.5,13.78-9.82,5-3.34,10.4-6.68,16.11-9.95,5.74-3.21,11.74-6.44,18.06-9.3,6.26-2.99,12.85-5.55,19.5-7.96,3.35-1.13,6.75-2.18,10.13-3.19,1.71-.45,3.42-.89,5.13-1.33,1.7-.46,3.41-.86,5.14-1.18,1.72-.35,3.43-.69,5.14-1.03,1.7-.35,3.44-.5,5.14-.75,1.71-.22,3.4-.49,5.1-.65,1.7-.11,3.39-.22,5.07-.33,6.7-.44,13.24-.06,19.37.64,3.06.43,6.01,1.07,8.85,1.61,2.81.76,5.49,1.61,8.06,2.37,2.52.93,4.89,1.95,7.14,2.89,1.14.43,2.16,1.05,3.17,1.61,1.01.56,1.98,1.11,2.93,1.64.94.53,1.85,1.04,2.73,1.54.82.59,1.61,1.16,2.37,1.7,1.5,1.1,2.87,2.11,4.12,3.02,2.37,1.95,4.04,3.72,5.26,4.8,1.17,1.13,1.8,1.73,1.8,1.73,0,0-.75-.45-2.16-1.28-1.4-.83-3.41-2.11-6-3.59-1.35-.65-2.84-1.38-4.47-2.16-.8-.4-1.64-.81-2.5-1.24-.9-.34-1.84-.7-2.81-1.06-.96-.36-1.96-.74-2.98-1.12-1.02-.38-2.05-.81-3.19-1.06-2.24-.56-4.53-1.3-6.97-1.87-2.48-.41-5.04-.92-7.7-1.31-2.7-.19-5.45-.57-8.31-.69-5.73-.16-11.76-.06-17.98.7-1.55.19-3.12.37-4.69.56-1.57.22-3.15.55-4.74.82-3.18.5-6.37,1.27-9.59,2.01-3.23.66-6.41,1.76-9.65,2.58-3.21.99-6.42,2.01-9.61,3.11-6.37,2.25-12.7,4.67-18.82,7.35-6.15,2.61-12.1,5.47-17.86,8.26-5.72,2.87-11.23,5.72-16.38,8.56-2.59,1.4-5.09,2.8-7.51,4.17-2.44,1.34-4.76,2.68-6.98,3.98-4.44,2.65-8.51,5.07-12.11,7.22-3.58,2.22-6.7,4.16-9.27,5.76-5.12,3.27-8.04,5.14-8.04,5.14Z"/>
    <path class="cls-3" d="m104.51,154.51s.61-.61,1.76-1.77c1.17-1.12,2.87-2.81,5.14-4.81,2.26-2.03,5.03-4.46,8.32-7.12,3.29-2.66,7.02-5.64,11.26-8.67,4.2-3.09,8.84-6.32,13.88-9.54,5.03-3.24,10.46-6.47,16.2-9.62,2.89-1.53,5.8-3.15,8.86-4.6,1.52-.74,3.04-1.49,4.58-2.24,1.54-.73,3.13-1.4,4.7-2.11,6.28-2.86,12.89-5.29,19.55-7.57,3.37-1.03,6.74-2.07,10.15-2.97,3.43-.82,6.81-1.75,10.26-2.32,1.72-.32,3.43-.63,5.13-.95,1.71-.27,3.44-.43,5.14-.65,1.71-.18,3.39-.46,5.08-.54,1.7-.09,3.38-.17,5.05-.25.83-.04,1.66-.08,2.49-.12.83.01,1.66.03,2.48.04,1.64.04,3.27.08,4.88.13,1.61,0,3.2.25,4.77.4,1.57.17,3.11.34,4.64.51,3.03.52,5.96,1.15,8.78,1.73,2.76.85,5.42,1.67,7.98,2.45,2.49.99,4.85,1.99,7.07,2.95,1.13.44,2.13,1.09,3.14,1.64,1,.56,1.97,1.11,2.9,1.64.93.54,1.85,1.02,2.7,1.55.81.59,1.6,1.16,2.35,1.7,1.49,1.1,2.85,2.1,4.09,3.01,2.35,1.96,4.02,3.71,5.22,4.79,1.17,1.13,1.79,1.72,1.79,1.72,0,0-.75-.44-2.15-1.27-1.39-.83-3.39-2.09-5.97-3.59-1.34-.65-2.83-1.38-4.44-2.16-.8-.4-1.63-.81-2.49-1.24-.88-.38-1.83-.71-2.79-1.08-.96-.36-1.95-.74-2.96-1.13-1.02-.37-2.03-.84-3.16-1.08-2.2-.61-4.51-1.26-6.92-1.93-2.45-.45-5.01-.91-7.66-1.39-2.69-.23-5.43-.6-8.27-.8-2.86,0-5.77-.26-8.76-.13-3,.22-6.04.09-9.14.55-1.55.16-3.11.33-4.68.49-1.57.14-3.15.48-4.73.72-1.58.27-3.18.49-4.78.81-1.59.34-3.19.68-4.8,1.02-3.23.59-6.41,1.62-9.65,2.39-3.22.88-6.42,1.91-9.62,2.9-6.38,2.13-12.71,4.42-18.86,6.98-6.17,2.48-12.14,5.22-17.91,7.9-2.87,1.39-5.68,2.76-8.44,4.11-2.73,1.4-5.43,2.74-8.01,4.11-2.6,1.36-5.12,2.7-7.54,4.02-2.44,1.29-4.78,2.58-7.02,3.85-4.46,2.56-8.55,4.9-12.17,6.98-3.6,2.15-6.73,4.03-9.31,5.58-5.15,3.17-8.09,4.98-8.09,4.98Z"/>
    <path class="cls-3" d="m104.51,174.46s.6-.61,1.79-1.71c1.19-1.09,2.92-2.72,5.22-4.65,2.29-1.95,5.1-4.3,8.43-6.86,3.33-2.55,7.11-5.43,11.4-8.32,4.24-2.96,8.94-6.03,14.03-9.11,2.53-1.56,5.21-3.03,7.91-4.61,2.75-1.49,5.54-3.03,8.45-4.49,2.9-1.46,5.85-2.96,8.92-4.32,1.53-.7,3.06-1.4,4.6-2.1,1.57-.65,3.15-1.3,4.73-1.95,3.15-1.34,6.41-2.51,9.68-3.7,3.27-1.17,6.63-2.18,9.95-3.25,6.75-1.86,13.55-3.62,20.41-4.65,1.71-.27,3.42-.54,5.11-.81,1.71-.16,3.42-.33,5.12-.49,3.38-.41,6.76-.43,10.07-.52,1.65-.08,3.3,0,4.93.07,1.63.08,3.24.15,4.84.23,3.19.28,6.3.74,9.31,1.12,2.99.66,5.89,1.23,8.67,1.92,2.72.88,5.35,1.74,7.88,2.56,2.43,1.05,4.76,2.07,6.97,3.03,2.17,1.04,4.1,2.29,5.96,3.32.92.55,1.83,1.02,2.66,1.57.8.59,1.58,1.16,2.33,1.7,1.47,1.1,2.82,2.1,4.04,3.01,2.32,1.96,3.98,3.69,5.17,4.77,1.16,1.12,1.77,1.72,1.77,1.72,0,0-2.93-1.76-8.06-4.84-1.33-.65-2.8-1.38-4.41-2.17-.79-.4-1.61-.81-2.47-1.24-.86-.41-1.81-.72-2.76-1.11-1.92-.7-3.89-1.6-6.07-2.27-2.18-.64-4.46-1.31-6.85-2.02-2.43-.48-4.97-.98-7.59-1.5-2.65-.32-5.38-.65-8.19-.99-2.84-.08-5.74-.32-8.7-.34-2.98.16-6.01,0-9.1.32-3.08.3-6.22.42-9.38.96-1.58.22-3.17.44-4.77.66-1.59.3-3.19.59-4.79.89-6.42,1.18-12.87,2.87-19.28,4.69-6.39,1.93-12.74,4.03-18.91,6.38-6.2,2.28-12.2,4.83-17.99,7.34-2.91,1.24-5.7,2.61-8.49,3.83-2.75,1.32-5.44,2.61-8.06,3.86-2.61,1.3-5.14,2.56-7.59,3.78-2.46,1.22-4.82,2.43-7.07,3.63-4.49,2.42-8.61,4.64-12.27,6.61-3.63,2.04-6.79,3.83-9.39,5.29-5.19,2.98-8.15,4.74-8.15,4.74Z"/>
    <path class="cls-3" d="m104.51,194.87s.6-.6,1.79-1.67c1.19-1.06,2.92-2.64,5.23-4.51,2.3-1.89,5.11-4.17,8.44-6.63,3.33-2.47,7.11-5.24,11.4-8.02,4.25-2.85,8.95-5.79,14.03-8.74,5.09-2.92,10.55-5.87,16.34-8.65,2.89-1.4,5.85-2.79,8.9-4.08,3.02-1.36,6.14-2.6,9.31-3.8,3.14-1.27,6.4-2.31,9.64-3.44,3.28-1.02,6.58-2.03,9.91-2.96,3.37-.8,6.69-1.76,10.1-2.36,1.7-.33,3.39-.66,5.08-.99,1.69-.3,3.41-.49,5.1-.74,1.7-.21,3.37-.52,5.07-.65,1.7-.13,3.38-.26,5.06-.38l2.51-.19,2.5-.04c1.66-.01,3.31-.03,4.95-.04,3.27.05,6.5.33,9.64.52,3.13.45,6.2.82,9.16,1.36,2.93.72,5.81,1.27,8.51,2.08,2.68.93,5.28,1.74,7.72,2.67,2.38,1.07,4.67,2.09,6.84,3.06,2.1,1.11,4.01,2.32,5.84,3.36,1.85,1.01,3.44,2.17,4.88,3.29,1.45,1.09,2.77,2.09,3.97,2.99,2.27,1.96,3.91,3.66,5.08,4.74,1.14,1.11,1.74,1.7,1.74,1.7,0,0-2.89-1.74-7.95-4.79-1.31-.65-2.76-1.37-4.35-2.16-.78-.39-1.59-.81-2.44-1.23-.83-.45-1.78-.74-2.71-1.13-1.89-.72-3.85-1.58-5.97-2.31-2.15-.65-4.4-1.34-6.76-2.06-2.38-.59-4.91-1.05-7.47-1.61-2.6-.46-5.32-.74-8.07-1.14-2.79-.24-5.66-.38-8.58-.57-2.95.08-5.94-.06-8.99.11-6.1.34-12.4.91-18.75,2.03-1.59.28-3.19.5-4.78.83-1.59.34-3.19.68-4.78,1.02-3.21.59-6.37,1.56-9.57,2.32-3.18.85-6.34,1.79-9.49,2.74-3.11,1.08-6.28,1.94-9.33,3.1-6.15,2.15-12.15,4.47-17.92,6.85-5.77,2.38-11.29,4.83-16.51,7.23-5.19,2.45-10.13,4.75-14.62,7.02-4.49,2.27-8.6,4.39-12.24,6.29-3.62,1.95-6.77,3.65-9.37,5.05-5.18,2.85-8.14,4.54-8.14,4.54Z"/>
    <path class="cls-3" d="m104.51,216.64s2.46-2.32,7.1-5.99c2.33-1.82,5.17-4.03,8.55-6.38,3.36-2.39,7.21-5.01,11.54-7.66,2.15-1.36,4.43-2.69,6.78-4.12,2.38-1.36,4.85-2.76,7.42-4.13,5.15-2.74,10.66-5.51,16.52-8.06,5.83-2.61,11.99-5.02,18.35-7.21,6.38-2.14,12.94-4.13,19.64-5.64,6.68-1.59,13.48-2.7,20.22-3.5,3.38-.33,6.74-.6,10.06-.76,3.34-.02,6.62-.24,9.87-.05,6.48.21,12.74.83,18.58,1.95,2.91.6,5.76,1.04,8.44,1.9,2.67.83,5.31,1.39,7.71,2.39,2.42.93,4.76,1.7,6.91,2.65,2.11,1.03,4.11,2,5.99,2.92,1.9.85,3.53,1.96,5.07,2.88,1.52.94,2.92,1.81,4.19,2.59,2.41,1.76,4.23,3.22,5.49,4.17,1.24.98,1.9,1.5,1.9,1.5,0,0-3.12-1.39-8.36-3.92-1.36-.52-2.87-1.1-4.51-1.74-1.66-.58-3.33-1.45-5.29-1.96-1.92-.59-3.96-1.22-6.11-1.89-2.17-.58-4.48-1.09-6.86-1.68-2.36-.67-4.93-.89-7.52-1.36-2.58-.51-5.31-.7-8.09-.99-2.77-.36-5.65-.39-8.58-.52-2.92-.2-5.93-.02-8.97-.01-3.04.02-6.14.36-9.27.51-3.12.31-6.28.68-9.46,1.06-6.34.98-12.79,2.04-19.15,3.61l-4.78,1.11-4.74,1.28c-3.16.81-6.27,1.81-9.38,2.71-3.08,1.01-6.13,2-9.15,2.99-2.99,1.09-5.97,2.07-8.86,3.2-5.81,2.15-11.36,4.42-16.61,6.63-5.24,2.23-10.19,4.4-14.72,6.51-4.51,2.14-8.67,4.09-12.32,5.9-3.64,1.84-6.82,3.44-9.43,4.77-2.6,1.37-4.65,2.44-6.04,3.18-1.39.75-2.14,1.15-2.14,1.15Z"/>
    <path class="cls-3" d="m103.73,237.19s2.5-2.26,7.2-5.8c4.7-3.54,11.6-8.37,20.32-13.5,2.17-1.29,4.47-2.58,6.84-3.93,2.4-1.29,4.88-2.64,7.48-3.93,5.18-2.62,10.75-5.2,16.62-7.62,5.87-2.44,12.04-4.71,18.43-6.72,3.21-.95,6.42-2.02,9.72-2.8l4.94-1.26,5-1.08c3.33-.76,6.72-1.23,10.08-1.8,3.36-.56,6.76-.81,10.11-1.22,6.73-.52,13.4-.72,19.84-.37,3.22.24,6.38.31,9.46.82,3.08.42,6.09.76,8.98,1.45,2.89.61,5.71,1.14,8.36,2.01,2.65.83,5.25,1.46,7.63,2.47,2.39.95,4.72,1.72,6.84,2.71,2.09,1.04,4.07,2.02,5.93,2.94,3.69,1.89,6.66,3.99,9.18,5.5,4.75,3.56,7.34,5.65,7.34,5.65,0,0-3.1-1.38-8.31-3.91-1.35-.53-2.85-1.11-4.48-1.74-1.65-.57-3.31-1.46-5.26-1.98-1.91-.6-3.93-1.24-6.07-1.91-2.15-.62-4.45-1.13-6.81-1.73-2.34-.68-4.89-.96-7.47-1.44-2.57-.52-5.27-.79-8.04-1.1-2.75-.39-5.62-.51-8.53-.66-2.91-.23-5.9-.15-8.93-.17h-2.28s-2.3.11-2.3.11c-1.54.07-3.09.14-4.65.21-3.12.19-6.27.58-9.44.83-6.33.85-12.77,1.76-19.13,3.16l-4.78.99-4.74,1.17c-3.16.74-6.29,1.63-9.39,2.48-3.1.87-6.15,1.85-9.18,2.74-2.99,1.02-5.99,1.93-8.89,2.96-5.82,2.02-11.42,4.1-16.69,6.19-5.27,2.09-10.24,4.13-14.8,6.11-4.54,2.02-8.72,3.85-12.39,5.58-3.67,1.74-6.87,3.26-9.5,4.51-2.62,1.3-4.68,2.32-6.09,3.02-1.4.71-2.15,1.09-2.15,1.09Z"/>
    <path class="cls-3" d="m106.18,257.16s2.55-2.09,7.31-5.32c2.39-1.59,5.3-3.55,8.75-5.58,3.43-2.09,7.36-4.33,11.74-6.63,4.39-2.27,9.17-4.71,14.37-6.99,5.17-2.34,10.75-4.55,16.57-6.7,5.86-2.06,11.96-4.09,18.28-5.74,6.29-1.77,12.82-3.11,19.37-4.31,3.29-.55,6.6-.99,9.88-1.44,3.31-.32,6.6-.72,9.89-.88,3.29-.16,6.54-.41,9.78-.33,3.23,0,6.42-.02,9.55.24,1.57.09,3.12.19,4.66.28,1.54.15,3.05.34,4.55.52,1.5.18,2.98.37,4.44.55,1.45.27,2.89.53,4.31.79,1.41.27,2.8.53,4.18.79,1.36.34,2.69.68,4,1.01,2.62.69,5.14,1.32,7.5,2.18,2.36.84,4.67,1.46,6.77,2.37,2.09.9,4.07,1.75,5.93,2.56,3.68,1.67,6.73,3.48,9.27,4.82,4.89,3.12,7.56,4.98,7.56,4.98,0,0-3.13-1.11-8.41-3.17-2.73-.83-5.99-1.94-9.75-3.03-1.9-.48-3.92-.99-6.05-1.53-2.12-.55-4.4-.92-6.74-1.42-2.33-.54-4.82-.84-7.37-1.18-1.27-.18-2.57-.37-3.88-.56-1.33-.12-2.67-.23-4.03-.35-1.36-.13-2.74-.26-4.13-.39-1.4-.06-2.82-.11-4.25-.17-1.43-.06-2.88-.12-4.34-.18-1.46,0-2.94.01-4.43.02-5.95-.04-12.1.37-18.34.9-3.12.23-6.25.74-9.4,1.05-3.14.46-6.29.92-9.43,1.46-6.28,1.1-12.55,2.35-18.67,3.85-6.14,1.43-12.12,3.11-17.92,4.75-5.76,1.75-11.35,3.46-16.59,5.27-5.26,1.76-10.2,3.55-14.76,5.22-4.52,1.76-8.71,3.32-12.38,4.81-3.67,1.51-6.87,2.83-9.51,3.91-2.63,1.13-4.69,2.02-6.1,2.63-1.41.62-2.16.95-2.16.95Z"/>
    <path class="cls-3" d="m105.35,278.96s2.56-2.03,7.35-5.16c2.41-1.54,5.32-3.44,8.79-5.39,3.44-2.01,7.39-4.18,11.78-6.37,4.4-2.18,9.19-4.52,14.4-6.68,5.18-2.22,10.76-4.32,16.59-6.34,5.85-1.94,11.95-3.84,18.27-5.36,6.29-1.64,12.79-2.84,19.32-3.93,3.28-.45,6.56-.88,9.84-1.24,3.29-.26,6.56-.63,9.83-.71,3.27-.13,6.5-.29,9.71-.17,1.6.03,3.19.05,4.78.08,1.58.05,3.15.21,4.7.31,1.55.12,3.09.23,4.62.35,1.52.2,3.02.39,4.51.58,1.49.21,2.96.37,4.4.61,1.44.28,2.86.55,4.27.82,1.4.28,2.78.56,4.13.84,1.34.35,2.66.7,3.96,1.05,1.29.36,2.56.7,3.81,1.05,1.24.35,2.44.81,3.61,1.2,2.34.85,4.63,1.47,6.7,2.41,2.07.91,4.03,1.76,5.87,2.57,3.64,1.7,6.67,3.48,9.18,4.83,4.85,3.11,7.51,4.96,7.51,4.96,0,0-3.11-1.1-8.35-3.16-2.71-.84-5.95-1.94-9.68-3.05-3.79-.98-8.01-2.13-12.7-3.01-1.17-.23-2.34-.53-3.57-.7-1.23-.18-2.48-.35-3.75-.54-1.26-.19-2.55-.39-3.85-.59-1.32-.13-2.65-.26-4-.4-1.35-.14-2.72-.28-4.1-.42-1.39-.12-2.8-.15-4.22-.24-1.42-.08-2.86-.16-4.31-.24-1.45-.02-2.92-.03-4.4-.05-1.48-.01-2.97-.02-4.47-.03-1.5.05-3.02.09-4.54.14-3.04.04-6.12.31-9.22.5-3.1.14-6.22.63-9.35.88-3.13.37-6.27.82-9.4,1.26-6.26.99-12.51,2.11-18.62,3.48-6.12,1.3-12.1,2.86-17.88,4.38-5.76,1.62-11.33,3.22-16.57,4.91-5.26,1.65-10.2,3.32-14.76,4.9-4.53,1.66-8.71,3.13-12.39,4.54-3.67,1.43-6.88,2.68-9.52,3.7-2.63,1.07-4.7,1.92-6.11,2.5-1.41.59-2.16.91-2.16.91Z"/>
    <path class="cls-3" d="m292.76,280.99c-2.71-.84-5.95-1.94-9.68-3.05-3.79-.98-8.01-2.13-12.7-3.01-1.17-.23-2.34-.53-3.57-.7-1.23-.18-2.48-.35-3.75-.54-1.26-.19-2.55-.39-3.85-.59-1.32-.13-2.65-.26-4-.4-1.35-.14-2.72-.28-4.1-.42-1.39-.12-2.8-.15-4.22-.24-1.42-.08-2.86-.16-4.31-.24-1.45-.02-2.92-.03-4.4-.05-1.48-.01-2.97-.02-4.47-.03-1.5.05-3.02.09-4.54.14-3.04.04-6.12.31-9.22.5-3.1.14-6.22.63-9.35.88-3.13.37-6.27.82-9.4,1.26-6.26.99-12.51,2.11-18.62,3.48-6.12,1.3-12.1,2.86-17.88,4.38-5.76,1.62-11.33,3.22-16.57,4.91-5.26,1.65-10.2,3.32-14.76,4.9-4.53,1.66-8.71,3.13-12.39,4.54-3.67,1.43-6.88,2.68-9.52,3.7-2.63,1.07-4.7,1.92-6.11,2.5-1.41.59-2.16.91-2.16.91,0,0,2.56-2.03,7.35-5.16,2.41-1.54,5.32-3.44,8.79-5.39,3.44-2.01,7.39-4.18,11.78-6.37,4.4-2.18,9.19-4.52,14.4-6.68,5.18-2.22,10.76-4.32,16.59-6.34,5.85-1.94,11.95-3.84,18.27-5.36,6.29-1.64,12.79-2.84,19.32-3.93,3.28-.45,6.56-.88,9.84-1.24,3.29-.26,6.56-.63,9.83-.71,3.27-.13,6.5-.29,9.71-.17,1.6.03,3.19.05,4.78.08,1.58.05,3.15.21,4.7.31,1.55.12,3.09.23,4.62.35,1.52.2,3.02.39,4.51.58,1.49.21,2.96.37,4.4.61,1.44.28,2.86.55,4.27.82,1.4.28,2.78.56,4.13.84,1.34.35,2.66.7,3.96,1.05,1.29.36,2.56.7,3.81,1.05,1.24.35,2.44.81,3.61,1.2,2.34.85,4.63,1.47,6.7,2.41,2.07.91,4.03,1.76,5.87,2.57,3.64,1.7,6.67,3.48,9.18,4.83,4.85,3.11,7.51,4.96,7.51,4.96"/>
    <g>
      <path class="cls-2" d="m482.33,335.6c.46.38.93.75,1.39,1.14,4.13,3.41,8.55,6.5,12.52,10.09,8.33,7.54,17.28,14.39,25.29,22.29-.02-.51.01-1.03.21-1.52l1.56-3.9c.2-.5.5-.94.87-1.3-.02-.53.07-1.08.28-1.59l1.28-3.1c-6.89-7.15-14.18-13.9-21.74-20.38-8.61-7.37-17.39-14.53-26.16-21.71,1.14,1.36,2.12,2.84,2.85,4.54.05.13.1.25.14.38.02.05.04.11.06.16.84,2.26,1.32,4.78,1.44,7.51,0,.09,0,.17,0,.26.05.24.07.48.07.73v5.91c0,.17-.02.33-.04.5Z"/>
      <path class="cls-2" d="m437.14,369.37c-1.17-1.14-2.34-2.28-3.49-3.44h-13.69c-.19,0-.37-.08-.56-.11.76.92,1.53,1.82,2.29,2.72h13.21c.86,0,1.61.34,2.24.83Z"/>
      <path class="cls-2" d="m406.4,372.54v-.28c0-2.05,1.66-3.71,3.71-3.71h1.57c-.46-1.41-.72-2.96-.72-4.63,0-1.2,0-2.4,0-3.6-.43-.51-.71-1.11-.82-1.75-.51-.31-.94-.75-1.25-1.28-1.01-1.73-1.73-3.71-2.14-5.87-.08-.41-.08-.83-.02-1.24-.18-.41-.29-.86-.32-1.33l-.07-1.39c0-.06,0-.13,0-.19v-3.74c0-.28.03-.55.09-.81-.06-.26-.09-.53-.09-.81v-5.52c0-.22.02-.43.06-.64-.04-.21-.06-.42-.06-.64v-5.91c0-.14,0-.28.02-.42-.02-.19-.03-.37-.02-.56.11-2.8.63-5.36,1.54-7.61,0-.02.02-.04.03-.06.04-.12.08-.24.13-.36,1.25-2.99,3.18-5.44,5.72-7.37-2.1-3.78-3.02-7.67-2.61-12.26.09-1.01-.07-2.26.99-2.61,1.27-.41,1.54,1.06,2.02,1.8,2.16,3.31,4.54,6.43,7.01,9.47,3.38-1,7.29-1.56,11.79-1.59h1.64c-7.9-7.91-15.25-16.36-21.49-25.89-2.96-4.52-2.31-9.27-1.44-15.17,5.69,7.6,10.77,14.32,16.26,20.72,6.4,7.46,13.84,13.82,21.09,20.34h6.69c7.07.05,12.72,1.34,17.02,3.79-7.93-6.51-15.82-13.07-23.52-19.86-12.79-11.29-24.76-23.22-34.82-37.05-2.94-4.04-3.98-8.31-3.48-13.15.1-1.02.03-2.16,1.07-2.6,1.26-.53,1.71.76,2.2,1.51,9.82,14.82,22.43,27.08,35.76,38.59,11.59,10,23.52,19.61,35.33,29.35,15.38,12.69,31,25.14,44.49,39.79.04-.24.08-.48.17-.72l2.05-5.13c.11-.27.24-.52.41-.75.04-.3.12-.61.24-.9l1.41-3.43c-3.76-4.35-7.71-8.56-11.82-12.66-8.77-8.74-18.31-16.62-27.73-24.63-21.71-18.45-44.98-35.13-64.56-56.02-5.15-5.49-9.35-11.9-14.12-17.65-4.89-5.89-4.63-11.74-4.49-19.61,9.72,16.29,23.08,27.72,35.3,40.12,6.01,6.1,13.28,10.95,19.89,16.49,7.54,6.32,14.96,12.84,22.62,18.98,5.74,4.61,11.66,9.05,17.15,13.95,11.13,9.95,22.17,20.04,31.59,31.59.05-.1.09-.21.15-.31.03-.12.08-.24.12-.36l2.55-6.36s.02-.06.04-.09c.03-.11.07-.22.11-.32l1.18-2.9c-5.41-7.18-11.39-13.92-17.66-20.44-4.81-5.01-9.39-10.39-14.84-14.59-7.07-5.45-13.87-11.2-20.73-16.89-10.9-9.05-21.8-18.13-32.68-27.19-11.43-9.51-21.93-19.79-31.78-30.8-4.44-4.97-8.52-10.32-12.21-15.87-2.76-4.15-.53-9.14-.55-14.01,2.28,3.11,4.58,6.19,6.82,9.32,9.2,12.83,20.67,23.47,32.64,33.57,19.47,16.41,39.43,32.25,58.62,48.99,13.6,11.86,26.24,24.57,36.25,39.3.68-.65,1.57-1.06,2.55-1.06h6.15c-5.36-10.6-12.34-20.29-20.26-29.56-15.84-18.52-34.93-33.27-53.55-48.62-8.67-7.15-17.74-13.89-25.91-21.57-13.46-12.66-27.77-24.52-38.63-39.75-5.43-7.62-6.09-9.55-5.03-19.73.92-.27,1.22.45,1.6,1.01,13.25,19.6,30.39,35.42,48.59,50.25,15.31,12.47,30.39,25.23,45.62,37.8,10.31,8.51,19.86,17.81,28.34,28.13,8.13,9.89,15.63,20.25,21.21,31.88,1.54,3.22,2.1,6.77,3.12,10.16h4.65c-.29-3.58-1.33-7.11-2.31-10.63-5.86-21.19-18.33-38.28-32.92-54.28-17.44-19.12-38.15-34.38-57.85-50.88-16.54-13.85-33.38-27.45-47.55-43.9-4.18-4.85-8.12-9.9-11.53-15.31-2.7-4.28-.68-9.2-1.29-13.75,1.33-.52,1.77.49,2.14,1.04,15.98,23.6,37.58,41.49,59.35,59.33,18.91,15.49,38.35,30.41,55.25,48.22,14.72,15.52,27.13,32.52,33.85,53.16.86,2.64.69,5.59,2.46,8.38,1.39-17.09-4.19-31.83-12.19-46.05-12.87-22.89-31.68-40.32-51.51-56.86-17.53-14.62-35.29-28.97-52.44-44.05-13.15-11.56-25.26-24.05-35.6-38.21-.84-1.15-1.32-2.45-1.29-3.97.08-3.39.03-6.78.47-10.35,3.53,3.93,6.68,8.01,9.93,11.98,12.81,15.69,27.76,29.14,43.36,41.89,15.61,12.77,31.58,25.1,46.69,38.47,19.22,17.02,35.57,36.3,46.59,59.7,2.17,4.61,3.99,9.44,4.54,14.61.14,1.26.28,2.49,1.52,4.02,0-4.67.41-8.86-.07-12.95-2.05-17.26-9.67-32.14-19.89-45.95-4.2-5.68-8.38-11.6-13.06-16.63-5.81-6.25-12.17-12.25-18.67-17.97-6.7-5.9-13.32-12.03-20.29-17.48-10.24-8.01-20.04-16.52-30.11-24.72-18.1-14.73-35.54-30.15-48.65-49.81-3.19-4.79-1.58-9.86-2.18-15.69,3.86,4.98,7.09,9.37,10.55,13.57,10.12,12.3,21.95,22.9,33.85,33.4,18,15.9,37.74,29.73,55.44,46,8.39,7.71,16.63,15.52,23.92,24.44,8.19,10.02,16.03,20.11,21.13,32.06,2.66,6.24,5.74,12.37,6.53,19.26.09.78.58,1.5,1.23,2.15,1.28-11.47-.58-22.35-5.28-32.87-10.52-23.54-26.98-42.44-45.92-59.47-18.14-16.31-37.17-31.59-55.94-47.15-13.28-11.02-25.9-22.63-36.59-36.13-7.08-8.94-13.39-18.52-17.37-29.37-.34-.93-.66-1.88-.88-2.84-.4-1.72.1-4.26-1.85-4.78-1.81-.49-3.18,1.51-4.4,2.91-.1.4-.06.95-.31,1.18-5.45,5-7.42,11.23-6.62,18.46-.27,15.5.78,31.02-.6,46.51-.03.37.3.78.46,1.17.82,3.81.15,7.65.21,11.48.4,4.62.34,9.23.04,13.85-.01,5.32-.02,10.65-.03,15.97.44,4.61.33,9.23.08,13.85-.04,5.32-.08,10.63-.12,15.95.52,4.42.4,8.84.08,13.26,0,5.39,0,10.77,0,16.16-.05,17.51-.09,35.02-.14,52.53.67,2.35.23,4.72.08,7.08.51,4.37.35,8.75.11,13.13-.04,4.11-.08,8.23-.11,12.34,0,18.23-.02,36.47-.03,54.7.06,2.78.12,5.57.17,8.35,0,4.49,0,8.98-.01,13.47,0,5.48-.01,10.95-.02,16.43.18,2.82.32,4.93.24,6.5h17.4Z"/>
      <path class="cls-2" d="m491.63,372.54h18.64c-10.41-9.46-21.42-18.19-32.35-27.03h-3.87s.05.03.07.05c.59.39,1.04.93,1.33,1.54.71.16,1.36.53,1.87,1.06,1.6,1.68,2.86,3.66,3.74,5.88.21.54.3,1.12.25,1.68.32.44.55.95.66,1.52.27,1.44.43,2.98.49,4.57,0,.04,0,.08,0,.13v.28c0,.5-.1.98-.28,1.42.18.43.28.91.28,1.41,1,.82,2.02,1.63,3.02,2.45,2.05,1.69,4.12,3.35,6.17,5.05Z"/>
    </g>
    <path class="cls-2" d="m317.18,96.43v211.19h14.9c2.05,0,3.71,1.66,3.71,3.71v10.26c0,.07,0,.13,0,.19,0,.06,0,.13,0,.19v6.36c0,.14,0,.28-.02.42.02.14.02.28.02.42v1.45c0,2.05-1.66,3.71-3.71,3.71h-14.9v5.46h2.09c2.05,0,3.71,1.66,3.71,3.71v5.13c0,.36-.05.7-.15,1.03.09.33.15.67.15,1.03v4.69c0,.44-.08.86-.22,1.26.14.39.22.81.22,1.25v4.3c0,2.05-1.66,3.71-3.71,3.71h-2.09v6.63h65.79V26.01l7.35-8.83c-18.4,11.75-71.38,48.19-73.15,79.24Z"/>
    <g>
      <path class="cls-3" d="m186.88,377.12l-1.42-3.46c-.23-.57-.32-1.17-.26-1.77-.5-.39-.9-.9-1.15-1.5l-.59-1.43c-.84.05-1.68.11-2.52.16,0,.08.04.16.03.24.47.38.85.89,1.09,1.47l1.42,3.46c.27.67.34,1.39.22,2.08.6.41,1.08,1,1.36,1.71l.18.45c.88-.02,1.77-.05,2.65-.07-.42-.37-.79-.81-1.01-1.35Z"/>
      <path class="cls-3" d="m260.75,375.71v-3.46c0-.59.14-1.15.38-1.65-.25-.5-.38-1.06-.38-1.65v-.03c-1.2-.07-2.35-.15-3.58-.22-5.25-.29-10.8-.6-16.53-.72l-1,2.41c-.25.6-.65,1.12-1.15,1.5.06.59-.03,1.2-.26,1.77l-1.36,3.32c1.15-.04,2.33-.08,3.46-.11,5.81-.21,11.43-.42,16.76-.61,1.27-.06,2.47-.11,3.71-.16-.01-.13-.05-.25-.05-.38Z"/>
    </g>
    <g>
      <path class="cls-3" d="m173.58,344.94c-.11-.25-.18-.52-.23-.78-.2-.26-.36-.54-.49-.85l-.48-1.17c-.63.08-1.25.17-1.88.25l1.95,4.87c.14.34.22.7.25,1.06.24.29.44.62.59.98l.76,1.87c.74-.06,1.46-.11,2.21-.18-.23-.28-.42-.59-.57-.94l-2.12-5.13Z"/>
      <path class="cls-3" d="m260.89,349.69c-.09-.33-.15-.67-.15-1.03v-5.13c0-.27.03-.52.08-.77-.77-.12-1.5-.23-2.29-.35-2.25-.32-4.58-.66-6.93-.99l-.78,1.91c-.13.31-.29.59-.49.85-.05.27-.12.53-.23.78l-1.86,4.49c3.25.14,6.43.32,9.51.47,1.05.05,2.04.09,3.07.14.02-.12.02-.24.05-.36Z"/>
      <path class="cls-3" d="m205.57,340.46c.13.3.21.61.26.93.15.22.29.46.39.71l2.12,5.13c.15.36.24.73.27,1.1.23.28.42.59.57.93h0c1.56-.06,3.11-.14,4.66-.16.28,0,.56,0,.84,0,.13-.27.28-.54.47-.77.03-.37.12-.75.27-1.1l2.12-5.13c.11-.25.24-.49.39-.71.04-.32.13-.63.26-.93l.51-1.2c-1.66-.03-3.32-.06-4.99-.08-2.86.01-5.73.14-8.59.23l.45,1.06Z"/>
    </g>
    <path class="cls-3" d="m113.41,316.12c2.69-.75,5.99-1.54,9.73-2.53.35-.08.75-.18,1.11-.27l1.38-3.4c.57-1.4,1.93-2.31,3.44-2.31h20.6c.37-.08.71-.15,1.08-.22,5.33-1.04,10.94-2.12,16.76-3.05,2.91-.51,5.88-.91,8.87-1.39,3-.41,6.04-.82,9.11-1.23,6.14-.71,12.37-1.45,18.62-1.86,6.24-.55,12.5-.78,18.66-.97,3.08-.11,6.13-.04,9.16-.11,3.02,0,6,.14,8.94.15,2.93.13,5.82.27,8.64.39,2.82.16,5.57.44,8.27.62,5.36.53,10.46,1.02,15.12,1.73,2.35.3,4.59.66,6.7,1.05,2.13.36,4.16.7,6.06,1.02,3.79.79,7.09,1.48,9.81,2.05,3.72.92,6.35,1.52,7.65,1.81h.53c-.91-.47-3.5-1.78-7.55-3.7-2.58-1.13-5.74-2.43-9.42-3.86-3.72-1.23-7.9-2.85-12.61-4.01-4.67-1.36-9.81-2.52-15.29-3.58-2.75-.47-5.57-.95-8.47-1.38-2.9-.37-5.88-.72-8.91-1.03-6.06-.52-12.35-.89-18.74-.89-6.39-.03-12.88.19-19.34.7-12.93,1-25.75,3.03-37.55,5.77-5.91,1.32-11.55,2.89-16.87,4.46-5.31,1.6-10.27,3.29-14.79,4.98-4.55,1.62-8.63,3.35-12.23,4.9-3.6,1.55-6.68,3.03-9.2,4.29-5.04,2.5-7.77,4.21-7.77,4.21,0,0,.77-.22,2.22-.63,1.45-.4,3.56-.98,6.26-1.72Z"/>
    <g>
      <path class="cls-3" d="m197.02,320.04c.1.17.2.35.27.53l2.46,5.97c1.26-.06,2.52-.12,3.78-.2,3.11-.19,6.22-.39,9.31-.58,3.1-.08,6.19-.17,9.25-.25.79-.02,1.58-.05,2.37-.07l2-4.86c.08-.19.17-.37.27-.53l1.72-4.16c-2.15-.06-4.3-.14-6.49-.09-3.15.02-6.32.03-9.5.05-3.18.13-6.37.34-9.56.51-2.41.18-4.82.31-7.22.51l1.32,3.19Z"/>
      <path class="cls-3" d="m260.75,321.79c0-.06,0-.13,0-.19v-2.01l-1.42,3.44c-.08.18-.17.36-.27.53l-.92,2.23c.89.03,1.74.06,2.61.08v-3.87c0-.07,0-.13,0-.19Z"/>
      <path class="cls-3" d="m167.22,329.63l-2.62-6.2c-.05-.12-.1-.25-.14-.37,0-.01-.01-.03-.02-.04l-.71-1.72c-.57.11-1.13.23-1.69.35l2.13,5.32c.05.12.09.24.12.36.08.15.16.3.22.45l.85,2.09c.57-.08,1.12-.14,1.7-.22.05,0,.1-.01.15-.02Z"/>
      <path class="cls-3" d="m114.24,338.08l1.2-2.91c-1.1.44-2.2.88-3.15,1.28-5.14,2.15-7.95,3.64-7.95,3.64,0,0,3.1-.63,8.54-1.75.41-.08.93-.18,1.37-.26Z"/>
    </g>
    <g>
      <path class="cls-4" d="m21.65,328.35c.09-2.38.52-4.5,1.27-6.36h66c.75,1.9,1.2,4.02,1.35,6.36H21.65Zm43.83,5.97c-.19-2.27-1.94-3.4-5.24-3.4h-8.5c-3.59,0-5.34,1.38-5.24,4.13v.06h-24.85v-5.91h68.62v5.91h-24.78v-.78Zm-43.83,2.06h24.85v5.52h-24.85v-5.52Zm0,7.14h24.85v5.13h-24.85v-5.13Zm0,7.2h24.85v4.69h-24.85v-4.69Zm0,7.2h24.85v4.3h-24.85v-4.3Zm0,7.14h24.85v3.9h-24.85v-3.9Zm24.85,8.98c-.05.63.02,1.19.21,1.67h-25.07v-3.46h24.85v1.79Zm43.76,5.52c0,1.04-.07,2.03-.21,2.96H21.79c-.09-.93-.14-1.92-.14-2.96v-.11h68.62v.11Zm-1.13,7.03c-.33.97-.73,1.86-1.2,2.68H23.99c-.52-.82-.94-1.71-1.27-2.68h66.42Zm-66.07-64.99c2.83-6.77,10.01-10.19,21.53-10.27h22.73c11.42.07,18.58,3.5,21.46,10.27H23.07Zm60.47,72.19c-1.32.89-2.83,1.64-4.53,2.23h-46.1c-1.75-.59-3.28-1.34-4.6-2.23h55.23Zm-18.27-18.07c.14-.48.21-1.04.21-1.67v-1.79h24.78v3.46h-25Zm.21-39.33h24.78v5.13h-24.78v-5.13Zm0,28.79h24.78v3.79h-24.78v-3.79Z"/>
      <path class="cls-4" d="m95.65,393.79h25.7l-.85,2.23h-25.77l.92-2.23Zm2.97-7.2h25.63l-1.06,2.68h-25.7l1.13-2.68Zm2.9-7.14h80.09l1.2,3.07h-82.56l1.27-3.07Zm2.9-7.2h74.21l1.42,3.46h-77.04l1.42-3.46Zm2.9-7.2h25.63l-1.56,3.9h-25.63l1.56-3.9Zm2.9-7.14h25.63l-1.7,4.3h-25.7l1.77-4.3Zm2.9-7.2h25.7l-1.91,4.69h-25.7l1.91-4.69Zm26.55-2.06h-25.7l2.05-5.13h50.91l2.05,5.13h-25.77l-1.77-4.35-1.77,4.35Zm-20.75-12.27h45.11l2.19,5.52h-49.57l2.27-5.52Zm2.9-7.2h39.23l2.41,5.91h-44.04l2.41-5.91Zm2.9-7.2h33.42l2.55,6.36h-38.52l2.55-6.36Zm4.32-10.65h24.78l4.18,10.27h-33.14l4.18-10.27Zm15.01,39.39h25.77l1.91,4.69h-25.77l-1.91-4.69Zm2.9,7.2h25.85l1.7,4.3h-25.77l-1.77-4.3Zm2.9,7.14h25.85l1.56,3.9h-25.77l-1.63-3.9Zm8.78,21.53h25.85l1.06,2.68h-25.85l-1.06-2.68Zm2.9,7.2h25.85l.85,2.23h-25.77l-.92-2.23Z"/>
      <path class="cls-4" d="m193.65,321.6h-25.77l-4.25-10.27h25.77l4.25,10.27Zm-25.63.39h25.85l2.62,6.36h-25.77l-2.69-6.36Zm3.04,7.2h25.77l2.48,5.91h-25.85l-2.41-5.91Zm2.97,7.2h25.77l2.34,5.52h-25.85l-2.27-5.52Zm2.97,7.14h25.77l2.12,5.13h-25.77l-2.12-5.13Zm2.97,7.2h25.77l1.98,4.69h-25.85l-1.91-4.69Zm2.97,7.2h25.77l1.77,4.3h-25.77l-1.77-4.3Zm28.96,7.59l.14-.45h25.77l-1.63,3.9h-48.72l-1.63-3.9h25.85l.21.45Zm-23.01,6.75h45.89l-1.42,3.46h-43.05l-1.42-3.46Zm2.97,7.2h39.94l-1.27,3.07h-37.39l-1.27-3.07Zm2.97,7.14h33.99l-1.13,2.68h-31.72l-1.13-2.68Zm2.97,7.2h28.04l-.92,2.23h-26.2l-.92-2.23Zm17.21-35.87h25.7l-1.77,4.3h-25.7l1.77-4.3Zm2.97-7.2h25.7l-1.91,4.69h-25.77l1.98-4.69Zm2.97-7.2h25.7l-2.12,5.13h-25.7l2.12-5.13Zm2.97-7.14h25.7l-2.27,5.52h-25.77l2.34-5.52Zm2.97-7.2h25.77l-2.48,5.91h-25.77l2.48-5.91Zm2.97-7.2h25.77l-2.62,6.36h-25.77l2.62-6.36Zm4.46-10.65h25.78l-4.25,10.27h-25.77l4.25-10.27Z"/>
      <path class="cls-4" d="m264.46,311.33h67.62v10.27h-67.62v-10.27Zm0,10.65h67.62v6.36h-67.62v-6.36Zm24.5,8.65v4.46h-24.5v-5.91h67.62v1.45h-43.12Zm-24.5,5.75h24.5v5.52h-24.5v-5.52Zm54.81,7.14v5.13h-54.81v-5.13h54.81Zm-54.81,7.2h54.81v4.69h-54.81v-4.69Zm0,7.2h54.81v4.3h-54.81v-4.3Zm0,7.14h24.5v3.9h-24.5v-3.9Zm0,7.2h24.5v3.46h-24.5v-3.46Zm0,7.2h67.62v3.07h-67.62v-3.07Zm0,7.14h67.62v2.68h-67.62v-2.68Zm0,7.2h67.62v2.23h-67.62v-2.23Z"/>
      <path class="cls-4" d="m339.73,400.98h19.05l-.85,1.84h-18.69l.5-1.84Zm2.12-7.2h20.18l-.99,2.23h-19.83l.64-2.23Zm2.12-7.2h21.31l-1.2,2.68h-20.89l.78-2.68Zm23.72-5.3l-.57,1.23h-21.95l.85-3.07h13.24l8.43,1.84Z"/>
      <path class="cls-4" d="m410.05,328.35c.09-2.38.52-4.5,1.27-6.36h66.07c.71,1.9,1.11,4.02,1.2,6.36h-68.54Zm0,1.12v-.28h68.62v5.91h-24.78v-.73c-.1-2.34-1.84-3.51-5.24-3.51h-8.5c-3.59,0-5.34,1.38-5.24,4.13v.11h-24.85v-5.63Zm24.85,11.94v.5h-24.85v-5.52h24.85v5.02Zm20.82,3.4c7.13.07,12.58,1.36,16.36,3.85h-61.96l-.07-1.39v-3.74h25.63c.8.89,2.27,1.32,4.39,1.28h15.65Zm-20.82,29.79c0,.41.05.78.14,1.12h-24.93v-3.46h24.78v2.34Zm43.83,4.97c0,1.04-.07,2.03-.21,2.96h-68.26c-.1-.63-.14-1.28-.14-1.95v-1.12h68.62v.11Zm-4.11-28.84c1.27,1.34,2.27,2.9,2.97,4.69h-65.5c-.8-1.38-1.37-2.94-1.7-4.69h64.23Zm2.97,35.87c-.33.97-.73,1.86-1.2,2.68h-63.94c-.52-.82-.94-1.71-1.27-2.68h66.42Zm-66.14-64.99c2.83-6.77,10.01-10.19,21.53-10.27h22.73c11.47.07,18.65,3.5,21.53,10.27h-65.78Zm66.84,36.32c.24,1.26.38,2.6.43,4.02v.28h-58.77c-2.55-1.04-4.6-2.47-6.16-4.3h64.51Zm-6.3,35.87c-1.32.89-2.83,1.64-4.53,2.23h-46.1c-1.7-.59-3.23-1.34-4.6-2.23h55.23Zm-18.13-25.88c-.05-1.3-.64-2.25-1.77-2.85h26.62v3.9h-24.85v-1.06Zm-.28,7.81c.19-.48.28-1.06.28-1.73v-1.73h24.85v3.46h-25.14Zm.28-33.92v-5.41h24.78v5.41h-24.78Z"/>
      <path class="cls-4" d="m485.11,386.59h24.57v2.68h-24.57v-2.68Zm.57-4.07c.61-1.34,1.6-2.36,2.97-3.07h17.49c1.37.71,2.34,1.73,2.9,3.07h-23.37Zm23.16,11.27c-.47.93-1.16,1.67-2.05,2.23h-18.84c-.9-.56-1.58-1.3-2.05-2.23h22.94Z"/>
      <path class="cls-4" d="m515.06,393.79h25.7l-.85,2.23h-25.77l.92-2.23Zm2.97-7.2h25.63l-1.06,2.68h-25.7l1.13-2.68Zm2.9-7.14h80.09l1.2,3.07h-82.57l1.27-3.07Zm2.9-7.2h74.21l1.42,3.46h-77.04l1.42-3.46Zm2.9-7.2h25.63l-1.56,3.9h-25.63l1.56-3.9Zm2.9-7.14h25.63l-1.7,4.3h-25.7l1.77-4.3Zm2.9-7.2h25.7l-1.91,4.69h-25.7l1.91-4.69Zm26.55-2.06h-25.7l2.05-5.13h50.91l2.05,5.13h-25.77l-1.77-4.35-1.77,4.35Zm-20.75-12.27h45.11l2.2,5.52h-49.57l2.27-5.52Zm2.9-7.2h39.23l2.41,5.91h-44.04l2.41-5.91Zm2.9-7.2h33.42l2.55,6.36h-38.52l2.55-6.36Zm4.32-10.65h24.78l4.18,10.27h-33.14l4.18-10.27Zm15.01,39.39h25.77l1.91,4.69h-25.77l-1.91-4.69Zm2.9,7.2h25.85l1.7,4.3h-25.77l-1.77-4.3Zm2.9,7.14h25.85l1.56,3.9h-25.77l-1.63-3.9Zm8.78,21.53h25.85l1.06,2.68h-25.85l-1.06-2.68Zm2.9,7.2h25.85l.85,2.23h-25.77l-.92-2.23Z"/>
      <path class="cls-4" d="m612.78,386.59h24.57v2.68h-24.57v-2.68Zm.57-4.07c.61-1.34,1.6-2.36,2.97-3.07h17.49c1.37.71,2.34,1.73,2.9,3.07h-23.37Zm23.16,11.27c-.47.93-1.16,1.67-2.05,2.23h-18.84c-.9-.56-1.58-1.3-2.05-2.23h22.94Z"/>
    </g>
  </g>
</svg>