<?xml version="1.0" encoding="utf-8"?>
<!-- Generator: Adobe Illustrator 28.1.0, SVG Export Plug-In . SVG Version: 6.00 Build 0)  -->
<svg version="1.0" id="Layer_1" xmlns="http://www.w3.org/2000/svg" xmlns:xlink="http://www.w3.org/1999/xlink" x="0px" y="0px"
	 viewBox="0 0 975.1 696" style="enable-background:new 0 0 975.1 696;" xml:space="preserve">
<style type="text/css">
	.st0{fill:#FFFFFF;}
</style>
<g>
	<path d="M520.2,184v93.8h169.7C668.3,223.6,600.7,184,520.2,184z"/>
	<path d="M520.2,71.8c191.8,0,347.2,109,347.2,242.8h65.3V30.9H520.2V71.8z"/>
	<path d="M454.9,343.6v-93.8c-80.5,0-148.1,39.5-169.7,93.8H454.9z"/>
	<path d="M802.1,384.1L802.1,384.1l0.5,40.5H288.5c24.4,50.6,89.7,87.4,166.5,87.4c18.4,0,36.3-2.3,53.3-6l0,0l125.1,83.2
		c-52,22.1-113.1,34.5-178.4,34.5c-191.8,0-347.2-109-347.2-242.8c0-134.3,155.4-242.8,347.2-242.8V97.1H42.4V665h824.9V381.3h-65.3
		C802.1,381.8,802.1,382.7,802.1,384.1z"/>
</g>
</svg>
